<svg xmlns="http://www.w3.org/2000/svg" x="0px" y="0px" xmlns:xlink="http://www.w3.org/1999/xlink" viewBox="0 0 192 192"><rect width="192" height="192" fill="none"/><rect width="192" height="192" fill="none"/><path fill="#F4481E" d="M170.8,86.1L37.4,10.3c-5.7-3.2-10.8-2.9-13.9,0.1l0,0c-2.2,2.1-3.4,5.5-3.4,9.9v151.3 c0,4.4,1.3,7.8,3.4,9.9l0,0c3.2,3.1,8.2,3.4,13.9,0.1l133.4-75.8C180.4,100.4,180.4,91.6,170.8,86.1z"/><linearGradient id="a" x1="98.9857" x2="98.9857" y1="183.6666" y2="7.938" gradientUnits="userSpaceOnUse"><stop offset="0" stop-color="#FFF" stop-opacity="0"/><stop offset="1" stop-color="#FFF" stop-opacity="0.1"/></linearGradient><path fill="url(#a)" d="M170.8,86.1L37.4,10.3c-5.7-3.2-10.8-2.9-13.9,0.1l0,0c-2.2,2.1-3.4,5.5-3.4,9.9v151.3 c0,4.4,1.3,7.8,3.4,9.9l0,0c3.2,3.1,8.2,3.4,13.9,0.1l133.4-75.8C180.4,100.4,180.4,91.6,170.8,86.1z"/><path fill="#FFF" d="M170.8,87.1L37.4,11.3C27.8,5.9,20,10.4,20,21.3v-1c0-11,7.8-15.5,17.4-10l133.4,75.8 c5,2.8,7.4,6.6,7.1,10.4C177.7,93.1,175.4,89.7,170.8,87.1z" opacity="0.1"/></svg>